<?xml version="1.0" encoding="UTF-8"?>
<!DOCTYPE svg PUBLIC "-//W3C//DTD SVG 1.1//EN" "http://www.w3.org/Graphics/SVG/1.1/DTD/svg11.dtd">
<!-- Creator: CorelDRAW -->
<svg xmlns="http://www.w3.org/2000/svg" xml:space="preserve" width="210mm" height="297mm" version="1.1" style="shape-rendering:geometricPrecision; text-rendering:geometricPrecision; image-rendering:optimizeQuality; fill-rule:evenodd; clip-rule:evenodd"
viewBox="0 0 21000 29700"
 xmlns:xlink="http://www.w3.org/1999/xlink"
 xmlns:xodm="http://www.corel.com/coreldraw/odm/2003">
 <defs>
  <style type="text/css">
   <![CDATA[
    .fil0 {fill:black;fill-rule:nonzero}
   ]]>
  </style>
 </defs>
 <g id="Camada_x0020_1">
  <metadata id="CorelCorpID_0Corel-Layer"/>
  <path class="fil0" d="M10500 14267.92c-321.16,0 -582.08,260.92 -582.08,582.08 0,291.55 215.04,532.83 495.11,574.9l30.38 4.6 0 -458.68 -137.51 0 0 -93.12 137.51 0 0 -123.66c0,-76.15 18.28,-126.31 48.53,-157.77 30.25,-31.47 74.95,-47.34 137.15,-47.34 49.73,0 69.08,3.02 87.49,5.27l0 76.23 -64.75 0c-36.74,0 -66.89,20.49 -82.53,47.8 -15.65,27.3 -20.52,59.9 -20.52,93.12l0 106.3 162.01 0 -14.42 93.12 -147.59 0 0 459.45 30.03 -4.08c284.05,-38.52 503.27,-281.74 503.27,-576.14 0,-321.16 -260.92,-582.08 -582.08,-582.08zm0 52.91c292.56,0 529.17,236.61 529.17,529.17 0,257.43 -184.26,469.15 -427.47,516.82l0 -343.14 140.04 0 30.75 -198.95 -170.79 0 0 -53.38c0,-27.45 5.02,-52.05 13.49,-66.82 8.46,-14.77 16.62,-21.19 36.64,-21.19l117.66 0 0 -177.04 -22.94 -3.1c-15.87,-2.15 -52.1,-7.18 -117.46,-7.18 -71.52,0 -132.91,19.48 -175.29,63.56 -42.38,44.08 -63.3,109.71 -63.3,194.46l0 70.74 -137.51 0 0 198.96 137.51 0 0 341.42c-239.3,-50.69 -419.67,-260.51 -419.67,-515.16 0,-292.56 236.61,-529.17 529.17,-529.17z"/>
 </g>
</svg>
