<?xml version="1.0" encoding="UTF-8"?>
<!DOCTYPE svg PUBLIC "-//W3C//DTD SVG 1.1//EN" "http://www.w3.org/Graphics/SVG/1.1/DTD/svg11.dtd">
<!-- Creator: CorelDRAW -->
<svg xmlns="http://www.w3.org/2000/svg" xml:space="preserve" width="210mm" height="297mm" version="1.1" style="shape-rendering:geometricPrecision; text-rendering:geometricPrecision; image-rendering:optimizeQuality; fill-rule:evenodd; clip-rule:evenodd"
viewBox="0 0 21000 29700"
 xmlns:xlink="http://www.w3.org/1999/xlink"
 xmlns:xodm="http://www.corel.com/coreldraw/odm/2003">
 <defs>
  <style type="text/css">
   <![CDATA[
    .fil0 {fill:black;fill-rule:nonzero}
   ]]>
  </style>
 </defs>
 <g id="Camada_x0020_1">
  <metadata id="CorelCorpID_0Corel-Layer"/>
  <path class="fil0" d="M10233.34 14250c-183.82,0 -333.34,149.52 -333.34,333.34l0 533.32c0,183.82 149.52,333.34 333.34,333.34l533.32 0c183.82,0 333.34,-149.52 333.34,-333.34l0 -533.32c0,-183.82 -149.52,-333.34 -333.34,-333.34l-533.32 0zm0 133.32l533.32 0c110.29,0 200.02,89.73 200.02,200.02l0 533.32c0,110.29 -89.73,200.02 -200.02,200.02l-533.32 0c-110.29,0 -200.02,-89.73 -200.02,-200.02l0 -533.32c0,-110.29 89.73,-200.02 200.02,-200.02zm600 66.67c-36.82,0 -66.68,29.86 -66.68,66.67 0,36.82 29.86,66.68 66.68,66.68 36.81,0 66.67,-29.86 66.67,-66.68 0,-36.81 -29.86,-66.67 -66.67,-66.67zm-333.34 66.67c-183.81,0 -333.34,149.53 -333.34,333.34 0,183.81 149.53,333.34 333.34,333.34 183.81,0 333.34,-149.53 333.34,-333.34 0,-183.81 -149.53,-333.34 -333.34,-333.34zm0 133.32c110.26,0 199.99,89.76 199.99,200.02 0,110.26 -89.73,199.99 -199.99,199.99 -110.26,0 -200.02,-89.73 -200.02,-199.99 0,-110.26 89.76,-200.02 200.02,-200.02z"/>
 </g>
</svg>
